<svg _ngcontent-c1="" id="email-with-circle" viewBox="0 0 28.152 28.152" xmlns="http://www.w3.org/2000/svg" width="100%" height="100%">
  <g _ngcontent-c1="" class="symbol-group" data-name="email">
    <path _ngcontent-c1="" d="M20.901 7.288v-.016a.475.475 0 0 0-.002-.048.51.51 0 0 0-.023-.069c-.007-.015-.01-.03-.018-.045l-.015-.028c-.004-.006-.004-.013-.009-.018a.436.436 0 0 0-.056-.052c-.012-.01-.018-.026-.032-.035h-.003l-.004-.006-.01-.003a.309.309 0 0 0-.081-.034.396.396 0 0 0-.058-.021l-.03-.005a.404.404 0 0 0-.043.002h-.001a.42.42 0 0 0-.077.002.344.344 0 0 0-.056.02l-.005.002c-.01.003-.019 0-.028.005L5.204 14.046a.39.39 0 0 0 .044.724l3.338 1.11c.009.015.012.031.022.048a.421.421 0 0 0 .058.05l1.494 3.904a.39.39 0 0 0 .366.253.395.395 0 0 0 .264-.103l2.508-2.287.007-.001 6.215 1.767a.382.382 0 0 0 .331-.055.399.399 0 0 0 .167-.291l.89-11.842c0-.012-.007-.022-.007-.035zm-14.476 7.05l10.513-4.933-7.97 5.777zm6.55 2.66c-.014.01-.029.011-.041.02l-2.248 2.05-1.247-3.26 9.31-6.748zm6.298 1.629l-5.4-1.534 6.151-8.46z"></path>
    <circle _ngcontent-c1="" cx="14.076" cy="14.076" fill="none" r="13.576" stroke="#000"></circle>
  </g>
</svg>