<svg _ngcontent-c1="" id="linkedin-with-circle" viewBox="0 0 28.152 28.152" xmlns="http://www.w3.org/2000/svg" width="100%" height="100%">
  <g _ngcontent-c1="" class="symbol-group" data-name="linkedin">
    <path _ngcontent-c1="" d="M8.798 9.136a1.258 1.258 0 0 1 .409-.963 1.5 1.5 0 0 1 1.062-.38 1.455 1.455 0 0 1 1.039.374 1.317 1.317 0 0 1 .409 1 1.23 1.23 0 0 1-.4.934 1.5 1.5 0 0 1-1.071.392h-.012a1.429 1.429 0 0 1-1.036-.388 1.294 1.294 0 0 1-.4-.969zm.152 10.219v-7.802h2.592v7.8zm4.029 0h2.593v-4.356a1.52 1.52 0 0 1 .59-1.3 1.269 1.269 0 0 1 .835-.274q1.308 0 1.308 1.763v4.169h2.593v-4.475a3.759 3.759 0 0 0-.817-2.622 2.789 2.789 0 0 0-2.161-.893 2.65 2.65 0 0 0-2.347 1.3v.023h-.013l.012-.023v-1.114h-2.593q.023.374.023 2.324t-.023 5.478z"></path>
    <circle _ngcontent-c1="" cx="14.076" cy="14.076" fill="none" r="13.576" stroke="#000"></circle>
  </g>
</svg>