<svg _ngcontent-c1="" id="twitter-with-circle" viewBox="0 0 28.152 28.152" xmlns="http://www.w3.org/2000/svg" width="100%" height="100%">
  <g _ngcontent-c1="" class="symbol-group" data-name="twitter">
    <path _ngcontent-c1="" d="M10.444 22.033zM22.167 9.921a6.222 6.222 0 0 1-1.792.491 3.131 3.131 0 0 0 1.372-1.726 6.257 6.257 0 0 1-1.981.758 3.123 3.123 0 0 0-5.318 2.845 8.86 8.86 0 0 1-6.431-3.26 3.123 3.123 0 0 0 .966 4.166 3.097 3.097 0 0 1-1.413-.39v.04a3.121 3.121 0 0 0 2.502 3.058 3.115 3.115 0 0 1-1.409.054 3.123 3.123 0 0 0 2.915 2.167 6.26 6.26 0 0 1-3.875 1.335 6.338 6.338 0 0 1-.745-.043A8.874 8.874 0 0 0 20.62 11.94q0-.202-.009-.403a6.345 6.345 0 0 0 1.557-1.616z"></path>
    <circle _ngcontent-c1="" cx="14.076" cy="14.076" fill="none" r="13.576" stroke="#000"></circle>
  </g>
</svg>